<?xml version="1.0" encoding="UTF-8"?>
<svg version="1.1" xmlns="http://www.w3.org/2000/svg" width="1024" height="1024">
<path d="M0 0 C0.91378418 0.45487793 1.82756836 0.90975586 2.76904297 1.37841797 C22.74047325 11.39524125 41.85812626 22.95902445 60 36 C61.1125415 36.79591553 61.1125415 36.79591553 62.24755859 37.60791016 C76.64196373 47.9424313 90.58401487 58.83065263 103.62890625 70.83984375 C104.91019466 72.00714604 106.19885069 73.16745489 107.5246582 74.28393555 C114.39345133 80.11023493 120.68236061 86.53193313 127.03637695 92.90600586 C129.05764268 94.9326298 131.08419574 96.95385547 133.11132812 98.97460938 C139.284761 105.14462075 145.3973242 111.29860044 151 118 C151.845625 118.96421875 152.69125 119.9284375 153.5625 120.921875 C215.99540761 193.36005627 254.10466397 283.61036827 267 378 C267.16661133 379.2163916 267.33322266 380.4327832 267.50488281 381.68603516 C272.50888807 420.3660634 272.34253967 461.36896224 267 500 C266.90054077 500.7239093 266.80108154 501.4478186 266.6986084 502.19366455 C257.44267936 569.02717916 236.06109798 635.61743021 200 693 C199.48260254 693.83611816 198.96520508 694.67223633 198.43212891 695.53369141 C187.19746854 713.67949769 175.07430588 730.83100578 161.44433594 747.25146484 C159.39626483 749.73089102 157.39006309 752.24372046 155.375 754.75 C151.3526575 759.66701795 147.10160928 764.3338579 142.7734375 768.98046875 C140.70281288 771.2090128 138.70727715 773.49151882 136.72265625 775.796875 C132.69669036 780.41589327 128.40466707 784.74231859 124.0625 789.0625 C122.92264648 790.2081543 122.92264648 790.2081543 121.75976562 791.37695312 C117.55116639 795.57836432 113.25589814 799.6125321 108.7487793 803.49194336 C106.57888876 805.36314451 104.47969893 807.30602353 102.375 809.25 C96.79822595 814.27587691 90.92864096 818.86513038 84.99072266 823.45068359 C82.88045102 825.09304119 80.78898208 826.75742012 78.69921875 828.42578125 C68.83144363 836.26892769 58.7425274 843.40879052 48 850 C47.20835449 850.48710449 46.41670898 850.97420898 45.60107422 851.47607422 C33.912769 858.64002266 22.06905408 865.4982916 10 872 C9.13036621 872.46905762 8.26073242 872.93811523 7.36474609 873.42138672 C-58.8642252 908.96774488 -58.8642252 908.96774488 -79 905 C-84.82985654 902.34522625 -91.45539867 898.54460133 -96 894 C-96.15005992 892.31747009 -96.22845375 890.62856863 -96.28125 888.94018555 C-96.31798828 887.78799026 -96.35472656 886.63579498 -96.39257812 885.44868469 C-96.42883811 884.11554161 -96.4646225 882.78238554 -96.5 881.44921875 C-96.5198999 880.75261328 -96.5397998 880.0560078 -96.56030273 879.33829308 C-97.38168707 850.39181113 -97.64554131 821.42705813 -98.0625 792.47235107 C-98.17567057 784.62045148 -98.29029855 776.76857746 -98.40851593 768.91675204 C-98.47784702 764.3005642 -98.54306764 759.68432992 -98.60742188 755.06806946 C-98.69551844 748.96437511 -98.80175908 742.86126687 -98.92477036 736.7581768 C-98.97702466 734.14775747 -99.02604218 731.53743087 -99.07141495 728.92689705 C-99.13259667 725.49399624 -99.20969109 722.0617438 -99.29707527 718.62941396 C-99.34281717 716.70954883 -99.37503302 714.78937628 -99.40681458 712.86922932 C-99.67541995 703.30013463 -101.36773459 696.790777 -106.875 688.8125 C-107.54668213 687.72718994 -108.21836426 686.64187988 -108.91040039 685.52368164 C-110.25665343 683.35287861 -111.62682396 681.19668645 -113.02294922 679.05761719 C-116.00220732 674.45003155 -118.71060043 669.69695396 -121.4375 664.9375 C-121.90333496 664.15157471 -122.36916992 663.36564941 -122.84912109 662.5559082 C-126 657.22118597 -126 657.22118597 -126 655 C-125.42911148 654.89026352 -124.85822296 654.78052704 -124.27003479 654.66746521 C-76.22648888 645.5981124 -76.22648888 645.5981124 -30 630 C-29.26910156 629.69513672 -28.53820312 629.39027344 -27.78515625 629.07617188 C-6.0071588 619.82551791 13.86935126 606.25690622 31 590 C31.70938721 589.33145996 31.70938721 589.33145996 32.43310547 588.64941406 C74.11073326 549.12822715 91.08790894 487.90979912 93.10839844 432.00048828 C94.10326047 384.49990334 84.17838525 336.10626037 56.12109375 296.953125 C55.62520752 296.25509766 55.12932129 295.55707031 54.6184082 294.83789062 C53.65290542 293.48804923 52.67435051 292.14740768 51.68041992 290.81835938 C47.41744867 284.87422713 45.66007889 279.41280796 46.390625 272.078125 C46.67421875 270.81484375 46.9578125 269.5515625 47.25 268.25 C50.28257273 254.3459401 51.40778588 241.07825308 51.375 226.875 C51.37412384 225.94958405 51.37324768 225.02416809 51.37234497 224.07070923 C51.30145682 201.31463273 48.81591481 180.25601106 40.69262695 158.83984375 C40.09047698 157.24033646 39.54046352 155.62139056 39 154 C19.87032648 145.54735356 -8.04881885 157.15467282 -26 164 C-31.96698841 166.403912 -37.80262871 169.06011819 -43.59960938 171.84667969 C-45.9595237 172.98055227 -48.33067242 174.08797075 -50.703125 175.1953125 C-62.47567849 180.79962635 -73.52788085 187.40956854 -84.53320312 194.375 C-85.1159903 194.73891342 -85.69877747 195.10282684 -86.29922485 195.47776794 C-87.89258305 196.47294544 -89.47947982 197.47844689 -91.06591797 198.48461914 C-96.38034461 201.22938917 -100.28644959 201.24806912 -105.97265625 199.671875 C-107.10815918 199.36789795 -108.24366211 199.0639209 -109.41357422 198.75073242 C-110.61771973 198.42049072 -111.82186523 198.09024902 -113.0625 197.75 C-145.9782838 189.17787332 -179.54094256 188.64827554 -213.36767578 188.73925781 C-217.64278002 188.75065131 -221.91763513 188.7438639 -226.1927309 188.73237991 C-261.86237318 188.65111256 -297.42714125 189.74614723 -332.04614258 199.24511719 C-333.0183374 199.50196289 -333.99053223 199.75880859 -334.9921875 200.0234375 C-335.84151855 200.25981934 -336.69084961 200.49620117 -337.56591797 200.73974609 C-341.78711557 201.19107976 -345.09170614 199.04853407 -348.6875 197.0390625 C-349.37497314 196.65621094 -350.06244629 196.27335938 -350.77075195 195.87890625 C-351.87422974 195.25822266 -351.87422974 195.25822266 -353 194.625 C-353.7839917 194.18800781 -354.5679834 193.75101563 -355.37573242 193.30078125 C-359.64460402 190.91354184 -363.88976941 188.49003931 -368.11328125 186.0234375 C-416.94888315 157.35910233 -416.94888315 157.35910233 -471.6875 153.875 C-478.99270217 158.56135611 -481.7290141 166.9527217 -484 175 C-484.67154728 178.08839926 -485.16832586 181.18583897 -485.625 184.3125 C-485.74617187 185.07755859 -485.86734375 185.84261719 -485.9921875 186.63085938 C-487.9703497 199.60717336 -488.21505407 212.5236516 -488.24023438 225.62475586 C-488.24992357 228.66352899 -488.2810245 231.70161952 -488.3125 234.74023438 C-488.37983297 247.35475821 -488.02753551 259.91739347 -484 272 C-483.76171875 274.19921875 -483.76171875 274.19921875 -483.6875 276.6875 C-483.63142578 277.89986328 -483.63142578 277.89986328 -483.57421875 279.13671875 C-484.72751147 286.89234777 -490.04739552 293.01219829 -494.6875 299.0625 C-533.24473819 350.47215092 -533.02235139 416.74458469 -524.73388672 478.26123047 C-522.88871903 490.8497055 -519.97168768 502.92073282 -516 515 C-515.78150391 515.68642578 -515.56300781 516.37285156 -515.33789062 517.08007812 C-509.75634727 534.37427555 -500.79748223 551.40536783 -490 566 C-489.42451416 566.78310547 -489.42451416 566.78310547 -488.83740234 567.58203125 C-483.29376668 575.08780193 -477.39767857 582.20099104 -471 589 C-470.42507813 589.639375 -469.85015625 590.27875 -469.2578125 590.9375 C-429.60521142 633.23360782 -366.38050688 644.89532575 -312 655 C-312 659.85330096 -313.80313103 662.03366825 -316.5 665.8125 C-325.51225245 679.00787598 -331.38474735 692.0409477 -336.41210938 707.19018555 C-341.39124091 721.91264628 -341.39124091 721.91264628 -346.70776367 724.98779297 C-348.78561544 725.83925445 -350.82439157 726.44312578 -353 727 C-354.27423828 727.33306152 -354.27423828 727.33306152 -355.57421875 727.67285156 C-358.37455397 728.36694321 -361.1827781 729.00321533 -364 729.625 C-364.94617188 729.8415625 -365.89234375 730.058125 -366.8671875 730.28125 C-392.4025882 736.01079974 -419.75687312 735.04430729 -442.3828125 720.83984375 C-455.74152953 711.44886506 -467.50634359 699.45159231 -478 687 C-478.92209631 685.92875625 -479.8453868 684.85853985 -480.76953125 683.7890625 C-485.55551125 678.24358487 -490.3021811 672.67226837 -494.9375 667 C-495.66066406 666.11570312 -496.38382813 665.23140625 -497.12890625 664.3203125 C-498.57375017 662.52858538 -499.98227496 660.70753295 -501.375 658.875 C-513.96168591 645.0895821 -534.1006683 631.70620177 -553.18359375 630.6640625 C-554.60131437 630.63451297 -556.01947514 630.62177282 -557.4375 630.625 C-558.18032227 630.62661133 -558.92314453 630.62822266 -559.68847656 630.62988281 C-567.98701189 630.81526402 -573.8152165 633.41374394 -580 639 C-578.58341327 643.89529339 -575.58779373 646.60942915 -571.875 649.875 C-571.33101562 650.36613281 -570.78703125 650.85726562 -570.2265625 651.36328125 C-567.87582246 653.47784881 -565.5037653 655.56563658 -563.10913086 657.63037109 C-540.94393491 676.78493462 -524.80149745 697.69370996 -511.10546875 723.42578125 C-495.10870879 753.40259312 -478.80310471 777.05081743 -445.20117188 787.359375 C-417.7677184 795.22026777 -388.65818896 793.61041932 -360.49609375 791.98828125 C-358.78676124 791.89245862 -357.07741068 791.79695734 -355.36804199 791.70178223 C-351.24514486 791.4715415 -347.12251304 791.23701442 -343 791 C-342.97670481 801.31929353 -342.95899811 811.63858068 -342.94818783 821.95789528 C-342.94299627 826.75091107 -342.93596733 831.54390871 -342.92456055 836.33691406 C-342.91359795 840.97293651 -342.90769518 845.60894163 -342.90512276 850.24497604 C-342.90329238 852.00295662 -342.89971884 853.76093637 -342.89426994 855.51890945 C-342.79166685 890.03260411 -342.79166685 890.03260411 -348.47265625 896.73828125 C-350.23099491 898.35242813 -352.00922738 899.68481086 -354 901 C-354.93199219 901.62068359 -354.93199219 901.62068359 -355.8828125 902.25390625 C-362.37153896 906.02367243 -369.31431097 905.84599248 -376.47265625 904.0390625 C-378.00808072 903.58586598 -379.53795676 903.11355222 -381.0625 902.625 C-381.91046143 902.36025879 -382.75842285 902.09551758 -383.63208008 901.82275391 C-434.37139369 885.50370785 -481.32917658 856.86398179 -523 824 C-523.928125 823.27425781 -524.85625 822.54851563 -525.8125 821.80078125 C-538.45958082 811.80877669 -550.83495632 801.33406555 -562.1328125 789.83203125 C-563.87852405 788.11918875 -565.67644303 786.55494919 -567.5625 785 C-570.8177218 782.27624298 -573.50514039 779.23279245 -576.25 776.00390625 C-577.92984577 774.08033286 -579.67650219 772.28686504 -581.5 770.5 C-606.5978699 745.83210394 -627.76797208 714.58646865 -645 684 C-645.6511377 682.85362061 -645.6511377 682.85362061 -646.31542969 681.68408203 C-684.97503291 613.29548208 -709.8796542 533.5240089 -710.203125 454.421875 C-710.21013931 453.26419113 -710.21715363 452.10650726 -710.22438049 450.91374207 C-710.24179638 447.19245467 -710.24823425 443.47132668 -710.25 439.75 C-710.25067474 438.47544952 -710.25134949 437.20089905 -710.25204468 435.88772583 C-710.23538861 416.06840877 -709.65920009 396.6573259 -707 377 C-706.82839355 375.69530762 -706.65678711 374.39061523 -706.47998047 373.04638672 C-700.14378522 325.62333718 -686.955935 279.49815396 -667 236 C-666.53722656 234.989375 -666.07445312 233.97875 -665.59765625 232.9375 C-647.40922423 193.50458505 -623.92812522 157.22730796 -596 124 C-595.56929199 123.484375 -595.13858398 122.96875 -594.69482422 122.4375 C-580.63443929 105.63833633 -565.65214745 88.79459098 -548.8984375 74.62109375 C-546.67099967 72.7190635 -544.52977029 70.7339228 -542.375 68.75 C-536.78603113 63.71313292 -530.90268787 59.11755612 -524.95117188 54.52294922 C-522.95486691 52.96477224 -520.98390565 51.37854898 -519.015625 49.78515625 C-450.15635702 -5.5478974 -358.37772295 -43.10708134 -270 -49 C-268.70835937 -49.08677002 -268.70835937 -49.08677002 -267.390625 -49.17529297 C-178.50625965 -54.78046346 -89.75190898 -43.62353988 0 0 Z " fill="#FFFFFF" transform="translate(732,84)"/>
</svg>
