<?xml version="1.0" encoding="UTF-8"?>
<svg version="1.1" xmlns="http://www.w3.org/2000/svg" width="512" height="421">
<path d="M0 0 C0.97018066 0.31348389 0.97018066 0.31348389 1.95996094 0.63330078 C15.98167618 5.34841157 28.62225131 12.69146938 38.99438477 23.27783203 C41.28499064 25.45283592 42.89255749 26.89558729 46.10522461 27.19848633 C51.49333488 26.71554294 56.69029886 25.11769154 61.8125 23.4375 C62.62509277 23.17428955 63.43768555 22.9110791 64.27490234 22.63989258 C78.74653138 17.85435963 92.46251288 12.08914211 105.7890625 4.6875 C109 3 109 3 111 3 C105.89992569 25.57845397 88.840773 46.17580973 70 59 C89.09031903 56.70367796 106.99512767 50.5165348 125 44 C119.27481687 55.82790338 110.06825811 65.66113176 101 75 C100.48034668 75.54543457 99.96069336 76.09086914 99.42529297 76.65283203 C97.83571632 78.32073707 96.2325102 79.97438583 94.625 81.625 C94.09640381 82.17881348 93.56780762 82.73262695 93.02319336 83.30322266 C90.22877636 86.13417073 87.62252587 88.33353099 84.1015625 90.20703125 C79.90835558 92.54242841 76.37409642 94.7063185 74 99 C72.25976434 106.84725776 72.77703913 115.01047664 72.95057678 123.00228882 C74.24481191 192.74852047 40.11068104 265.15400051 -6 316 C-6.56138672 316.62310059 -7.12277344 317.24620117 -7.70117188 317.88818359 C-13.82497451 324.66711494 -19.96250472 331.15850124 -27 337 C-27.97839844 337.86625 -28.95679688 338.7325 -29.96484375 339.625 C-49.51336297 356.90631627 -71.3913376 370.92946717 -95 382 C-95.67643555 382.32419922 -96.35287109 382.64839844 -97.04980469 382.98242188 C-126.08127875 396.84295812 -157.18623552 404.11905248 -189 408 C-189.81041748 408.1045752 -190.62083496 408.20915039 -191.45581055 408.31689453 C-201.60216545 409.44527658 -211.86737127 409.24399844 -222.0625 409.25 C-223.60408783 409.25101212 -223.60408783 409.25101212 -225.17681885 409.25204468 C-240.97863311 409.2355713 -256.40004212 408.74741526 -272 406 C-272.98935547 405.82839355 -273.97871094 405.65678711 -274.99804688 405.47998047 C-312.78470666 398.70815595 -352.55636504 385.5354076 -384 363 C-384 362.67 -384 362.34 -384 362 C-382.90872803 362.01571045 -381.81745605 362.0314209 -380.69311523 362.04760742 C-350.70262702 362.61433424 -350.70262702 362.61433424 -321 359 C-320.12472656 358.82839355 -319.24945313 358.65678711 -318.34765625 358.47998047 C-288.075048 352.3342895 -256.89301954 339.97380882 -233 320 C-234.1859375 319.84144531 -235.371875 319.68289063 -236.59375 319.51953125 C-266.49631786 315.30991627 -292.27707124 302.92347484 -311.47265625 278.90625 C-318.64484936 268.96605784 -324.93363883 257.92644997 -328 246 C-327.33097656 246.0721875 -326.66195312 246.144375 -325.97265625 246.21875 C-312.44902315 247.52573199 -299.36510648 247.60329031 -286 245 C-287.16015625 244.57074219 -288.3203125 244.14148438 -289.515625 243.69921875 C-319.26347066 232.52088361 -341.64467822 214.26099197 -355.75390625 185.4140625 C-361.78442806 171.47887176 -364.9982992 156.19633224 -364 141 C-360.58840121 142.09019294 -357.24609156 143.28264422 -353.92578125 144.62109375 C-342.70613865 149.07700962 -331.97916475 151.59147559 -320 153 C-321.25103516 151.98292969 -321.25103516 151.98292969 -322.52734375 150.9453125 C-345.09784443 132.38614875 -359.73150942 108.44725002 -363 79 C-364.20435711 57.62109032 -362.31563787 35.04373163 -350.41015625 16.52734375 C-349.94480469 16.02332031 -349.47945313 15.51929687 -349 15 C-348.34 15 -347.68 15 -347 15 C-345.63791114 16.54229325 -344.34588615 18.14663575 -343.0859375 19.7734375 C-338.42552137 25.59290154 -333.38885017 30.9175276 -328.09863281 36.16210938 C-326.62587477 37.62413161 -325.16414955 39.09657488 -323.703125 40.5703125 C-317.46943919 46.81319234 -310.93595567 52.54046183 -304 58 C-303.3930127 58.48662109 -302.78602539 58.97324219 -302.16064453 59.47460938 C-254.1322429 97.87314263 -195.92987782 118.17638467 -135 123 C-135.2165625 121.77990234 -135.2165625 121.77990234 -135.4375 120.53515625 C-139.83185829 93.40609708 -135.43630109 64.66171222 -119.765625 41.578125 C-117.59774142 38.63279352 -115.34620349 35.80460915 -113 33 C-112.08154297 31.83791016 -112.08154297 31.83791016 -111.14453125 30.65234375 C-96.20248549 12.58807948 -71.77005369 -0.93529499 -48.46142578 -3.78466797 C-32.15790414 -5.21094312 -15.65758831 -5.09047154 0 0 Z " fill="#FFFFFF" transform="translate(386,7)"/>
</svg>
